<?xml version="1.0" standalone="no"?>
<!DOCTYPE svg PUBLIC "-//W3C//DTD SVG 20010904//EN"
 "http://www.w3.org/TR/2001/REC-SVG-20010904/DTD/svg10.dtd">
<svg version="1.0" xmlns="http://www.w3.org/2000/svg"
 width="1024.000000pt" height="1024.000000pt" viewBox="0 0 1024.000000 1024.000000"
 preserveAspectRatio="xMidYMid meet">
<metadata>
Created by potrace 1.14, written by Peter Selinger 2001-2017
</metadata>
<g transform="translate(0.000000,1024.000000) scale(0.100000,-0.100000)"
fill="#000000" stroke="none">
<path d="M2220 10019 c-504 -57 -924 -305 -1192 -704 -186 -277 -298 -634
-323 -1030 -6 -86 45 -4484 59 -5177 l5 -248 -72 -42 c-40 -24 -107 -76 -150
-117 -138 -132 -213 -248 -318 -494 -150 -351 -199 -583 -199 -957 0 -210 10
-309 46 -460 91 -386 316 -658 570 -690 38 -4 89 -14 114 -20 134 -36 334 2
439 82 23 18 24 18 39 -3 12 -17 21 -20 48 -14 30 5 38 2 60 -25 37 -43 76
-61 116 -53 31 6 424 236 495 289 31 24 34 24 58 8 25 -16 26 -20 23 -114 -2
-113 6 -132 58 -128 22 1 38 -4 46 -15 19 -25 96 -48 137 -41 20 3 101 36 181
74 l145 68 175 5 c177 5 289 22 433 63 15 5 17 -2 17 -60 0 -72 16 -99 55 -94
13 2 37 -7 53 -19 50 -37 100 -46 157 -29 73 22 507 198 539 219 58 39 66 66
66 242 0 213 3 228 47 249 20 9 37 15 39 13 2 -1 -4 -116 -12 -255 -8 -138
-14 -282 -12 -319 3 -63 5 -68 27 -71 13 -2 35 -17 49 -33 27 -33 71 -59 100
-59 31 0 665 317 684 342 9 13 22 46 28 73 9 42 60 759 60 843 0 23 7 32 46
50 26 13 48 22 49 20 1 -2 -15 -275 -36 -608 -41 -665 -42 -655 18 -655 17 0
39 -8 50 -17 32 -29 101 -49 146 -41 60 9 568 264 609 306 46 45 56 90 63 277
3 85 12 243 20 350 8 107 24 330 35 495 11 165 25 322 30 348 17 81 45 124
100 152 27 14 53 25 58 25 17 0 44 -115 52 -228 6 -71 5 -178 -1 -272 -18
-291 -49 -725 -64 -890 -42 -470 -41 -504 22 -506 18 0 40 -8 51 -17 30 -27
102 -48 141 -41 20 4 59 17 86 29 28 12 139 59 248 104 109 45 209 89 223 99
35 25 57 78 55 136 0 28 6 134 14 236 8 102 30 388 49 635 49 622 52 636 129
719 44 46 56 41 86 -38 26 -69 41 -184 41 -309 0 -101 -46 -773 -75 -1102 -8
-93 -18 -226 -21 -295 -6 -112 -5 -128 11 -143 10 -10 28 -17 40 -15 13 2 36
-6 52 -18 64 -47 143 -51 223 -9 15 8 121 51 236 95 115 45 224 91 242 102 55
34 62 60 67 245 3 93 13 274 22 403 17 223 18 231 25 155 47 -507 335 -909
704 -981 43 -8 98 -19 120 -24 86 -19 231 -32 289 -26 181 20 495 146 632 255
84 66 84 65 81 420 l-3 309 -24 26 c-48 51 -120 41 -228 -32 -95 -64 -203
-119 -281 -142 -154 -47 -302 -4 -358 101 l-13 27 112 5 c286 13 535 146 708
379 67 91 109 176 146 296 23 76 26 105 27 227 0 122 -3 154 -28 250 -62 242
-158 413 -305 547 -122 110 -253 167 -404 176 -381 21 -750 -240 -946 -668
-88 -193 -168 -410 -183 -495 -2 -11 -4 93 -4 230 0 272 -10 364 -60 512 -37
112 -81 189 -147 260 -68 72 -138 116 -222 137 -32 9 -59 17 -61 18 -1 2 176
106 394 232 219 126 422 248 452 272 179 135 289 314 326 525 37 213 -18 441
-167 689 -32 52 -61 94 -66 93 -5 -1 -799 -464 -1764 -1029 -965 -564 -1760
-1029 -1767 -1032 -10 -4 -13 15 -10 86 3 79 0 94 -18 119 -48 65 -97 66 -245
4 -54 -23 -184 -66 -290 -96 -107 -30 -205 -63 -219 -73 -40 -30 -62 -78 -70
-154 -6 -53 -13 -76 -28 -87 -35 -28 -42 -57 -49 -195 -3 -74 -9 -139 -12
-143 -8 -11 -67 -53 -75 -53 -3 0 -6 33 -6 73 0 40 -5 111 -10 157 -34 281
-118 459 -260 550 -170 109 -464 88 -737 -51 l-92 -48 5 37 c3 20 7 50 9 65 6
34 -14 85 -42 110 -40 35 -82 32 -191 -11 -87 -35 -220 -76 -480 -147 -86 -24
-125 -68 -141 -157 -6 -36 -11 -72 -11 -81 0 -8 -13 -29 -29 -45 -22 -22 -31
-41 -35 -83 -3 -30 -26 -380 -51 -779 -25 -398 -49 -727 -53 -731 -4 -4 -28
-11 -54 -17 l-48 -10 0 40 c0 21 9 152 21 291 11 139 44 563 74 942 60 772 60
741 -11 771 -32 14 -52 14 -137 4 -54 -6 -101 -10 -102 -8 -10 9 -62 5649 -54
5718 28 219 102 356 227 417 51 25 67 28 157 27 87 0 111 -4 186 -32 47 -18
116 -51 155 -73 38 -23 1421 -802 3074 -1731 1653 -929 3039 -1713 3080 -1740
331 -225 532 -472 635 -782 18 -55 42 -145 54 -199 11 -55 22 -101 24 -103 5
-6 80 163 107 241 110 319 110 726 0 1067 -47 144 -157 357 -249 479 -91 121
-267 294 -367 361 -38 26 -1257 733 -2709 1571 -1452 839 -2680 1550 -2730
1582 -353 223 -791 328 -1185 284z m784 -7148 c5 -7 -11 -167 -29 -294 -5 -35
-4 -38 15 -32 12 4 20 2 20 -5 0 -18 16 -9 115 63 50 36 110 80 135 98 143
104 436 142 572 76 97 -48 162 -136 207 -282 65 -207 67 -437 10 -1170 -22
-291 -43 -621 -46 -733 -4 -126 -10 -205 -17 -209 -5 -4 -24 -6 -41 -5 -19 2
-110 -30 -242 -83 -214 -86 -249 -96 -259 -71 -5 13 30 545 73 1101 10 126 17
335 17 490 l1 270 -28 58 c-54 109 -152 140 -274 87 -69 -29 -198 -165 -246
-258 -46 -88 -54 -132 -67 -352 -6 -102 -17 -266 -25 -365 -22 -280 -45 -610
-49 -719 -4 -102 -14 -123 -46 -106 -12 6 -82 -24 -250 -106 -172 -84 -242
-114 -265 -112 l-30 3 2 115 c2 121 141 2337 147 2356 2 6 73 29 158 52 191
52 328 96 376 122 41 21 58 24 66 11z m3092 -113 c-4 -68 -9 -147 -13 -177 -5
-51 -5 -53 15 -42 15 8 22 8 25 -2 6 -15 15 -10 199 117 197 136 267 163 402
154 128 -8 233 -88 299 -229 19 -41 37 -67 44 -64 7 2 15 0 18 -5 10 -17 21
-12 91 48 38 31 101 78 141 104 39 26 74 52 78 58 11 17 93 50 178 72 146 37
299 12 396 -65 94 -74 166 -211 204 -387 35 -159 29 -436 -21 -1077 -25 -321
-42 -597 -42 -695 0 -90 -4 -170 -10 -178 -5 -9 -22 -13 -44 -12 -25 2 -99
-23 -251 -83 -118 -47 -224 -85 -235 -85 -11 0 -23 7 -27 16 -3 8 4 138 16
287 96 1207 105 1404 66 1552 -32 121 -92 185 -174 185 -66 0 -161 -50 -161
-85 0 -6 -14 -24 -31 -41 -39 -35 -90 -114 -112 -172 -22 -55 -31 -136 -73
-672 -19 -245 -39 -497 -44 -560 -5 -63 -10 -160 -10 -215 0 -55 -4 -107 -10
-115 -5 -9 -22 -13 -44 -12 -25 2 -90 -21 -228 -79 -214 -90 -254 -101 -265
-73 -7 18 11 343 27 499 24 225 70 946 70 1095 0 228 -26 335 -94 399 -37 35
-111 40 -169 12 -59 -29 -177 -164 -222 -256 -43 -86 -49 -127 -75 -500 -11
-159 -27 -382 -35 -495 -8 -113 -17 -274 -21 -359 -6 -130 -10 -157 -25 -172
-10 -10 -25 -16 -34 -13 -8 3 -117 -45 -246 -111 -270 -135 -292 -140 -297
-65 -2 40 128 2175 144 2358 l7 72 51 15 c28 8 94 26 146 40 163 45 283 85
330 110 74 40 73 41 66 -97z m-4080 40 c-4 -29 -42 -516 -86 -1083 -53 -690
-76 -1043 -71 -1070 8 -42 29 -91 59 -137 21 -34 9 -58 -34 -72 -16 -6 -110
-59 -210 -118 -99 -59 -185 -108 -192 -108 -18 0 -29 28 -52 140 -29 141 -34
152 -68 148 -20 -2 -28 -9 -30 -28 -6 -36 -52 -99 -122 -163 -34 -31 -64 -57
-68 -58 -13 -1 -37 -7 -98 -23 -204 -53 -393 26 -545 227 -190 252 -284 659
-250 1084 34 431 148 768 337 1004 68 84 237 229 289 247 22 8 81 17 130 20
73 3 101 0 147 -16 74 -26 153 -79 245 -165 43 -40 81 -67 91 -65 20 4 31 54
31 148 l1 66 103 18 c161 29 329 54 365 55 l33 1 -5 -52z m3090 -50 c-4 -35
-38 -555 -77 -1157 -39 -602 -75 -1105 -80 -1118 -8 -21 -14 -24 -39 -18 -25
5 -70 -14 -280 -120 -210 -105 -251 -123 -257 -109 -3 9 -1 109 6 223 23 387
50 826 76 1196 13 204 32 489 40 635 8 146 18 284 21 306 l6 41 116 32 c179
49 365 110 397 131 17 10 40 19 53 19 23 1 23 -1 18 -61z m4435 42 c214 -67
400 -283 482 -560 81 -271 55 -512 -78 -716 -51 -77 -180 -206 -225 -223 -19
-7 -71 -28 -115 -47 -148 -61 -280 -78 -474 -61 l-94 9 6 -64 c17 -181 128
-308 297 -338 85 -15 169 -6 300 35 141 44 264 107 280 145 9 23 46 47 57 37
1 -2 3 -128 3 -280 2 -307 2 -308 -61 -340 -53 -26 -316 -127 -394 -150 -105
-32 -304 -31 -399 1 -205 69 -349 191 -476 403 -281 467 -242 1257 85 1749 52
79 193 226 268 280 27 19 63 47 80 61 89 72 321 102 458 59z m-6273 -745 c42
-66 56 -145 55 -325 -1 -160 -1 -165 -24 -183 -31 -25 -290 -179 -294 -175 -9
8 28 460 40 503 8 28 31 71 50 97 34 46 119 117 140 118 6 0 20 -16 33 -35z"/>
<path d="M1072 2240 c-18 -11 -36 -28 -39 -38 -3 -9 -18 -33 -33 -52 -101
-130 -157 -342 -167 -631 -12 -355 37 -598 142 -699 35 -34 38 -35 121 -36 66
-1 95 4 125 19 54 26 139 108 139 134 0 11 18 195 41 409 22 214 43 465 46
558 l6 168 -72 68 c-85 81 -145 113 -221 118 -43 2 -62 -2 -88 -18z m-57 -688
c39 -38 97 -84 128 -103 31 -19 56 -41 56 -49 0 -8 -10 -121 -24 -249 -22
-219 -25 -236 -47 -253 -31 -24 -73 -23 -97 3 -65 70 -91 202 -98 492 -3 125
-2 227 2 227 4 0 40 -31 80 -68z"/>
<path d="M9338 2248 c-20 -5 -46 -19 -58 -31 -45 -45 -122 -152 -150 -206 -28
-56 -83 -223 -95 -291 -4 -19 -9 -43 -11 -52 -4 -15 0 -15 53 -3 32 8 99 28
148 45 50 17 108 36 130 41 22 6 72 26 112 45 182 87 226 253 98 377 -66 64
-157 95 -227 75z m34 -239 c15 -24 30 -56 33 -71 6 -24 1 -29 -52 -60 -48 -28
-182 -88 -198 -88 -8 0 28 107 56 162 16 31 43 73 60 93 29 33 33 35 53 22 11
-8 33 -34 48 -58z"/>
<path d="M5005 4031 c-66 -28 -203 -73 -305 -101 -168 -46 -188 -54 -215 -84
-33 -36 -55 -103 -55 -164 0 -28 -7 -44 -29 -64 -15 -15 -31 -40 -34 -56 -3
-15 -11 -139 -18 -276 -14 -261 -12 -278 29 -284 12 -2 35 -16 52 -32 58 -54
35 -58 525 85 182 53 221 69 248 106 30 41 36 86 57 452 23 374 22 393 -25
437 -43 41 -94 36 -230 -19z m171 -66 c9 -23 -34 -713 -46 -734 -8 -17 -14
-18 -38 -9 -25 10 -61 1 -254 -56 -125 -37 -239 -68 -255 -69 -28 -2 -28 -2
-28 58 0 66 22 459 31 571 l7 72 136 37 c228 62 365 106 386 126 23 23 53 25
61 4z"/>
</g>
</svg>
