<?xml version="1.0" standalone="no"?>
<!DOCTYPE svg PUBLIC "-//W3C//DTD SVG 20010904//EN"
 "http://www.w3.org/TR/2001/REC-SVG-20010904/DTD/svg10.dtd">
<svg version="1.0" xmlns="http://www.w3.org/2000/svg"
 width="1024.000000pt" height="1024.000000pt" viewBox="0 0 1024.000000 1024.000000"
 preserveAspectRatio="xMidYMid meet">
<metadata>
Created by potrace 1.14, written by Peter Selinger 2001-2017
</metadata>
<g transform="translate(0.000000,1024.000000) scale(0.100000,-0.100000)"
fill="#000000" stroke="none">
<path d="M1864 9054 c-97 -81 -354 -316 -354 -324 0 -4 299 -302 663 -663
l664 -656 39 40 40 39 404 -399 405 -399 -118 -119 -117 -118 -402 402 -403
403 43 43 42 43 -664 657 -664 657 -74 -78 c-81 -85 -278 -318 -278 -330 0 -4
242 -248 539 -542 651 -647 724 -734 881 -1055 197 -403 282 -819 296 -1450
24 -1002 -145 -1639 -573 -2170 -102 -126 -128 -152 -136 -131 -3 8 -20 22
-38 32 -29 14 -44 15 -143 4 -61 -6 -142 -18 -181 -25 -38 -7 -101 -19 -140
-25 -38 -6 -88 -17 -110 -23 -40 -11 -87 -49 -96 -76 -4 -11 -24 -3 -80 31
-249 152 -524 107 -764 -124 -129 -123 -201 -231 -302 -453 -170 -374 -217
-588 -217 -990 -1 -242 7 -315 49 -485 43 -168 95 -287 178 -408 98 -142 231
-238 362 -261 238 -41 317 -45 400 -22 59 17 153 58 177 78 14 13 20 12 45 -7
23 -17 34 -19 55 -11 22 8 30 5 54 -21 43 -44 77 -59 117 -50 50 10 462 259
519 313 45 43 48 48 48 96 0 42 -6 60 -35 101 -19 28 -37 68 -40 89 -4 21 1
117 9 213 9 96 16 188 16 204 0 28 1 28 19 12 18 -16 21 -16 44 -2 l24 16 7
-53 c3 -30 -5 -227 -19 -438 -14 -211 -25 -402 -25 -425 0 -58 18 -78 69 -76
22 1 41 -3 41 -8 0 -6 21 -20 47 -31 71 -30 112 -18 394 119 136 66 255 123
266 126 11 3 34 22 53 41 l33 34 14 203 c7 112 24 354 38 538 13 184 29 409
35 500 13 194 21 236 56 293 53 85 132 149 158 127 28 -22 56 -100 67 -188 14
-104 7 -273 -41 -962 -16 -234 -31 -501 -34 -593 -5 -157 -4 -169 15 -188 13
-13 27 -17 44 -13 16 4 34 -1 52 -14 15 -11 46 -25 68 -31 52 -15 76 -8 375
112 169 68 246 104 275 130 l40 34 7 224 c3 123 25 462 47 753 58 754 54 980
-20 1214 -17 52 -29 96 -27 98 3 2 60 13 129 24 68 11 136 22 152 25 15 2 27
3 27 2 0 -1 -11 -24 -25 -51 -16 -31 -25 -66 -25 -95 0 -40 -4 -49 -34 -73
-19 -15 -39 -42 -45 -60 -5 -18 -15 -121 -21 -228 -6 -107 -26 -431 -45 -720
-45 -672 -75 -1179 -75 -1251 0 -69 18 -93 61 -84 17 4 29 2 29 -4 0 -20 89
-64 118 -58 52 11 660 317 675 341 8 12 20 40 26 62 6 21 40 493 76 1049 36
556 68 1054 72 1107 l6 98 84 0 c77 0 84 -2 78 -18 -4 -9 -12 -46 -19 -82 -9
-53 -18 -71 -47 -100 -31 -30 -37 -44 -43 -95 -10 -97 -136 -2149 -136 -2224
0 -82 19 -108 71 -97 23 4 46 -1 85 -20 44 -22 62 -25 99 -20 48 8 542 247
600 292 59 45 71 88 79 279 4 94 13 258 21 365 8 107 24 330 35 495 12 165 25
323 31 350 11 57 53 137 94 178 l28 28 18 -28 c27 -41 48 -146 55 -275 6 -110
-33 -741 -71 -1143 -8 -88 -18 -226 -21 -306 l-7 -145 28 -22 c19 -15 35 -20
52 -16 15 4 30 1 41 -9 57 -51 133 -55 227 -12 28 12 139 59 248 104 109 45
209 89 223 99 35 26 57 80 56 137 -1 27 5 133 13 235 94 1211 94 1210 126
1274 43 86 44 86 94 36 39 -40 45 -53 54 -110 6 -36 11 -124 11 -195 0 -120
-36 -692 -60 -950 -6 -60 -12 -175 -14 -255 -3 -80 -8 -184 -12 -231 -6 -80
-5 -88 15 -108 15 -15 28 -20 46 -15 16 4 34 -1 52 -14 65 -45 144 -48 223 -7
15 8 121 51 236 95 115 45 224 91 242 102 55 34 62 59 67 251 6 179 21 430 31
507 6 42 8 38 25 -65 76 -446 333 -787 655 -869 112 -28 365 -59 439 -52 178
15 501 143 642 255 84 66 84 65 81 420 -3 293 -4 310 -23 331 -49 55 -113 49
-220 -20 -117 -77 -214 -127 -293 -150 -154 -47 -302 -4 -357 101 l-14 26 117
6 c139 6 229 30 357 92 251 121 438 351 503 619 28 116 23 304 -12 441 -34
132 -75 239 -124 320 -112 187 -247 307 -420 374 -61 23 -80 25 -207 25 -103
0 -157 -5 -205 -18 -84 -23 -211 -82 -290 -136 -70 -47 -202 -176 -251 -245
-18 -25 -35 -45 -39 -45 -13 0 -509 509 -570 585 -263 330 -444 755 -520 1225
-43 272 -54 434 -54 865 0 527 19 768 81 1030 71 305 203 567 408 815 43 52
337 355 653 672 l575 577 -29 38 c-50 67 -220 266 -286 336 l-63 67 -658 -641
-658 -642 41 -42 41 -42 -400 -404 -400 -404 -115 114 -115 114 396 404 397
404 42 -42 43 -42 343 335 c189 184 486 474 661 644 l319 309 -114 110 c-62
61 -153 143 -201 184 l-88 74 -67 -64 c-37 -35 -281 -276 -542 -534 -388 -385
-497 -487 -597 -560 -399 -292 -821 -447 -1423 -522 -211 -26 -919 -26 -1130
0 -631 79 -1069 247 -1470 563 -47 37 -326 308 -621 601 l-535 533 -80 -66z
m3547 -2543 c559 -112 1003 -575 1095 -1140 17 -102 18 -363 3 -464 -85 -568
-532 -1044 -1088 -1157 -55 -11 -111 -20 -125 -20 l-27 0 7 129 c6 120 5 131
-14 163 -40 64 -111 75 -208 32 -85 -38 -178 -69 -358 -119 -87 -25 -169 -52
-182 -60 -22 -14 -28 -12 -99 30 -120 70 -214 146 -321 257 -274 285 -396 613
-381 1018 15 380 130 657 382 918 241 251 515 391 845 432 111 13 358 3 471
-19z m-235 -2546 c9 -23 -34 -713 -46 -734 -8 -17 -14 -18 -38 -9 -24 10 -64
1 -276 -62 -165 -48 -251 -69 -258 -62 -6 6 -6 68 2 183 6 96 15 240 20 322 6
81 10 158 10 171 0 21 11 26 138 60 75 20 173 48 217 61 44 14 92 27 107 30
15 3 40 16 55 30 32 28 61 32 69 10z m2272 -1072 c-22 -23 -63 -51 -90 -63
-26 -11 -70 -34 -97 -49 l-48 -29 -399 399 -399 399 115 115 115 115 422 -422
423 -423 -42 -42z m-3834 710 c61 -59 111 -113 111 -119 0 -5 -137 -153 -305
-327 -304 -316 -305 -317 -311 -285 -12 73 -65 114 -136 106 -21 -3 -85 -23
-143 -46 -58 -22 -107 -39 -109 -37 -2 3 93 105 211 227 118 123 293 305 389
405 96 100 176 182 178 182 2 1 54 -47 115 -106z m-610 -732 c5 -7 -11 -168
-29 -295 -5 -33 -3 -37 11 -32 10 4 21 1 25 -6 6 -9 19 -4 51 20 116 86 275
187 326 208 75 30 203 47 306 42 184 -10 296 -120 355 -348 54 -213 54 -434 0
-1135 -22 -291 -44 -622 -47 -735 l-7 -205 -40 -2 c-23 -1 -123 -36 -240 -83
-220 -90 -261 -101 -271 -76 -3 9 1 110 10 224 61 789 80 1109 80 1367 1 261
0 272 -22 320 -30 65 -55 91 -108 111 -87 33 -215 -15 -301 -114 -138 -159
-166 -228 -178 -432 -6 -112 -15 -242 -55 -780 -11 -146 -21 -314 -24 -374 -4
-112 -13 -134 -45 -114 -12 7 -73 -19 -254 -107 -264 -129 -290 -136 -295 -75
-3 41 146 2382 154 2421 6 25 16 29 162 69 196 53 356 105 385 125 24 17 43
19 51 6z m3089 -92 c-1 -52 -4 -129 -7 -172 -6 -75 -6 -78 13 -68 15 8 20 7
25 -5 5 -13 14 -10 54 19 145 105 314 213 362 231 42 16 79 21 155 21 98 0
103 -1 159 -35 74 -45 129 -107 169 -192 18 -37 37 -67 42 -66 6 1 18 -2 27
-6 13 -6 31 4 69 38 29 26 88 71 133 101 45 30 100 68 123 85 111 77 336 101
460 49 227 -96 339 -393 320 -849 -4 -80 -25 -381 -47 -669 -24 -320 -40 -590
-40 -692 0 -139 -3 -170 -16 -183 -11 -11 -21 -13 -32 -7 -18 10 -69 -6 -297
-100 -171 -69 -212 -80 -221 -55 -6 16 17 375 36 556 5 47 23 283 41 525 41
575 35 735 -32 855 -33 60 -79 90 -138 90 -57 0 -122 -29 -147 -64 -11 -15
-32 -41 -47 -59 -71 -81 -109 -151 -127 -233 -5 -23 -21 -187 -35 -365 -14
-178 -35 -432 -46 -564 -11 -132 -23 -316 -27 -408 -8 -175 -14 -197 -52 -177
-15 8 -223 -70 -386 -144 -65 -30 -102 -33 -111 -9 -7 18 11 347 27 493 23
210 70 950 70 1100 0 228 -26 335 -93 399 -51 47 -169 35 -224 -21 -128 -131
-196 -247 -213 -363 -5 -38 -19 -200 -30 -360 -11 -159 -24 -344 -30 -410 -5
-66 -15 -227 -22 -358 -7 -136 -16 -245 -23 -253 -6 -8 -26 -17 -46 -18 -19
-2 -132 -53 -256 -116 -252 -127 -276 -132 -281 -65 -2 35 128 2160 145 2360
l6 75 51 15 c28 8 94 26 146 40 175 48 315 95 345 115 17 11 35 18 40 16 6 -2
9 -42 8 -97z m-4078 14 c-23 -223 -164 -2108 -159 -2135 8 -48 32 -108 55
-136 10 -14 19 -33 19 -43 0 -20 -36 -49 -61 -49 -9 0 -98 -49 -198 -110 -100
-60 -186 -110 -191 -110 -16 0 -28 33 -54 155 -17 81 -30 123 -42 132 -30 22
-35 17 -67 -58 -18 -42 -124 -159 -159 -176 -12 -6 -59 -21 -102 -33 -281 -79
-537 92 -690 462 -127 306 -156 690 -85 1109 63 374 231 710 435 870 31 24 72
59 92 76 47 42 86 54 194 60 67 4 100 1 140 -12 70 -22 167 -87 256 -169 43
-39 80 -66 90 -64 21 4 29 42 31 138 l1 75 133 24 c144 26 296 48 340 50 l28
1 -6 -57z m3088 -48 c-10 -220 -147 -2253 -153 -2271 -8 -19 -14 -22 -42 -18
-28 5 -71 -14 -273 -115 -132 -67 -245 -121 -252 -121 -9 0 -13 15 -13 43 0
54 53 912 85 1382 13 198 31 479 40 625 8 146 18 286 21 311 l6 47 152 41
c205 56 355 106 375 125 9 9 25 15 36 14 18 -3 20 -10 18 -63z m4438 45 c214
-67 399 -282 483 -560 83 -280 52 -522 -94 -734 -54 -78 -147 -172 -191 -193
-231 -110 -378 -139 -608 -119 l-94 8 6 -64 c26 -278 263 -409 567 -312 41 13
81 24 88 24 16 0 133 56 185 89 19 12 38 32 41 45 5 19 43 43 53 33 1 -2 3
-128 3 -280 2 -299 0 -308 -51 -334 -75 -38 -367 -145 -444 -164 -171 -40
-362 -12 -514 78 -88 52 -220 179 -281 271 -184 274 -261 647 -216 1038 18
151 58 333 101 454 44 124 141 299 216 392 68 84 220 222 278 252 16 9 31 21
34 28 5 13 79 41 152 57 76 17 218 12 286 -9z m-7484 -827 c-3 -10 -5 -2 -5
17 0 19 2 27 5 18 2 -10 2 -26 0 -35z"/>
<path d="M1085 2251 c-21 -9 -41 -29 -60 -60 -5 -10 -29 -45 -51 -79 -82 -122
-132 -330 -141 -593 -12 -355 37 -598 142 -699 35 -34 38 -35 125 -37 87 -2
90 -1 147 36 59 38 113 93 113 114 0 7 18 190 40 407 23 217 44 471 47 563 l6
168 -64 63 c-89 87 -145 117 -222 122 -34 2 -71 0 -82 -5z m47 -230 c52 -48
53 -49 34 -69 -18 -21 -17 -22 23 -70 l41 -48 -5 -80 c-3 -43 -22 -250 -42
-459 -33 -350 -38 -381 -57 -397 -33 -27 -70 -22 -100 13 -36 42 -49 77 -72
184 -16 75 -19 132 -19 335 0 257 6 312 50 464 23 78 71 176 87 176 4 0 31
-22 60 -49z"/>
<path d="M9327 2246 c-39 -14 -77 -42 -77 -58 0 -4 -20 -33 -45 -64 -25 -30
-58 -81 -74 -112 -29 -57 -83 -224 -96 -292 -4 -19 -9 -43 -11 -52 -4 -15 0
-15 53 -3 32 8 105 30 163 49 58 20 112 36 121 36 8 0 51 17 95 39 163 79 220
195 158 320 -31 62 -95 114 -168 136 -60 18 -70 18 -119 1z m10 -198 c34 -38
63 -91 63 -118 0 -21 -11 -32 -55 -58 -31 -17 -86 -42 -124 -56 l-69 -25 10
37 c27 99 111 242 142 242 7 0 22 -10 33 -22z"/>
</g>
</svg>
