<?xml version="1.0" standalone="no"?>
<!DOCTYPE svg PUBLIC "-//W3C//DTD SVG 20010904//EN"
 "http://www.w3.org/TR/2001/REC-SVG-20010904/DTD/svg10.dtd">
<svg version="1.0" xmlns="http://www.w3.org/2000/svg"
 width="1024.000000pt" height="1024.000000pt" viewBox="0 0 1024.000000 1024.000000"
 preserveAspectRatio="xMidYMid meet">
<metadata>
Created by potrace 1.14, written by Peter Selinger 2001-2017
</metadata>
<g transform="translate(0.000000,1024.000000) scale(0.100000,-0.100000)"
fill="#000000" stroke="none">
<path d="M1864 9054 c-97 -81 -354 -316 -354 -324 0 -4 299 -302 663 -663
l664 -656 39 40 40 39 404 -399 405 -399 -118 -119 -117 -118 -402 402 -403
403 43 43 42 43 -664 657 -664 657 -74 -78 c-81 -85 -278 -318 -278 -330 0 -4
242 -248 539 -542 651 -647 724 -734 881 -1055 197 -403 282 -819 296 -1450
24 -1002 -145 -1639 -573 -2170 -102 -126 -128 -152 -136 -131 -3 8 -20 22
-38 32 -29 14 -44 15 -143 4 -61 -6 -142 -18 -181 -25 -38 -7 -101 -19 -140
-25 -38 -6 -88 -17 -110 -23 -40 -11 -87 -49 -96 -76 -4 -11 -24 -3 -80 31
-248 151 -523 107 -761 -120 -141 -135 -213 -247 -328 -511 -148 -341 -194
-565 -194 -946 0 -156 4 -238 18 -319 78 -476 321 -806 612 -829 32 -3 79 -11
104 -17 66 -18 205 -16 269 3 53 16 139 56 174 80 15 10 20 9 28 -6 8 -14 21
-18 50 -16 32 3 45 -2 71 -28 47 -44 71 -54 111 -45 50 10 462 259 519 313 45
43 48 48 48 96 0 42 -6 60 -37 104 -34 50 -37 60 -38 124 0 39 3 111 8 160 4
50 10 125 14 168 6 74 7 77 24 61 17 -15 20 -15 46 4 l28 20 2 -62 c1 -33 -9
-247 -23 -475 -19 -303 -23 -420 -15 -438 9 -19 18 -23 56 -23 25 0 45 -5 45
-10 0 -6 21 -20 47 -31 71 -30 112 -18 394 119 136 66 255 123 266 126 11 3
34 22 53 41 l33 34 14 203 c7 112 24 354 38 538 13 184 29 409 35 500 6 91 16
184 21 208 16 74 81 163 148 204 l34 21 23 -27 c13 -15 32 -52 41 -84 28 -90
22 -395 -20 -992 -20 -278 -36 -552 -36 -608 0 -57 -3 -124 -7 -148 -8 -58 13
-94 57 -94 17 0 43 -8 57 -19 15 -10 45 -24 67 -30 52 -15 76 -8 375 112 169
68 246 104 275 130 l40 34 7 224 c3 123 25 462 47 753 58 754 54 980 -20 1214
-17 52 -29 96 -27 98 3 2 60 13 129 24 68 11 136 22 152 25 15 2 27 3 27 2 0
-1 -11 -24 -25 -51 -16 -32 -25 -66 -25 -97 0 -42 -4 -49 -35 -73 -43 -33 -51
-64 -60 -226 -3 -69 -26 -429 -50 -800 -24 -371 -52 -812 -62 -979 l-17 -304
22 -17 c13 -11 31 -16 43 -13 13 4 27 -2 40 -16 30 -32 79 -54 108 -48 52 11
659 317 674 341 8 12 20 40 26 62 6 21 40 493 76 1049 36 556 68 1054 72 1107
l6 98 84 0 c77 0 84 -2 78 -18 -4 -9 -12 -46 -19 -82 -9 -54 -17 -71 -44 -95
-30 -27 -34 -39 -43 -105 -10 -81 -139 -2141 -139 -2227 0 -67 26 -98 72 -89
22 4 46 -1 84 -20 44 -22 62 -25 99 -20 48 8 542 247 600 292 59 45 71 88 79
279 4 94 13 258 21 365 8 107 24 330 35 495 24 343 30 381 69 450 32 56 79
107 92 100 16 -10 48 -113 58 -189 6 -43 11 -119 11 -169 0 -95 -48 -803 -75
-1102 -8 -93 -18 -227 -21 -296 -6 -113 -5 -127 12 -147 13 -15 30 -22 56 -22
20 0 40 -5 44 -11 3 -6 27 -20 52 -30 54 -23 100 -19 177 16 28 12 139 59 248
104 109 45 209 89 223 99 35 26 57 80 56 137 -1 27 5 133 13 235 94 1211 94
1210 126 1274 43 86 44 86 94 36 56 -57 65 -97 65 -305 0 -140 -34 -676 -63
-1012 -7 -79 -10 -144 -7 -145 3 -2 0 -81 -7 -177 -12 -154 -11 -177 2 -198
11 -16 25 -23 46 -23 17 0 43 -8 57 -19 64 -44 143 -47 222 -6 15 8 121 51
236 95 115 45 224 91 242 102 55 34 62 59 68 256 4 178 19 418 31 502 5 42 7
37 28 -77 69 -368 244 -650 491 -789 87 -49 150 -68 309 -95 189 -31 322 -31
435 1 183 51 398 150 497 229 84 66 84 65 81 420 -3 293 -4 310 -23 331 -49
55 -113 49 -220 -20 -117 -77 -214 -127 -293 -150 -154 -47 -302 -4 -357 101
l-14 26 117 6 c139 6 229 30 357 92 251 121 438 351 503 619 28 116 23 304
-12 441 -34 132 -75 239 -124 320 -112 187 -247 307 -420 374 -61 23 -80 25
-207 25 -103 0 -157 -5 -205 -18 -84 -23 -211 -82 -290 -136 -70 -47 -202
-176 -251 -245 -18 -25 -35 -45 -39 -45 -13 0 -509 509 -570 585 -263 330
-444 755 -520 1225 -43 272 -54 434 -54 865 0 527 19 768 81 1030 71 305 203
567 408 815 43 52 337 355 653 672 l575 577 -29 38 c-50 67 -220 266 -286 336
l-63 67 -658 -641 -658 -642 41 -42 41 -42 -400 -404 -400 -404 -115 114 -115
114 396 404 397 404 42 -42 43 -42 343 335 c189 184 486 474 661 644 l319 309
-114 110 c-62 61 -153 143 -201 184 l-88 74 -67 -64 c-37 -35 -281 -276 -542
-534 -388 -385 -497 -487 -597 -560 -399 -292 -821 -447 -1423 -522 -211 -26
-919 -26 -1130 0 -631 79 -1069 247 -1470 563 -47 37 -326 308 -621 601 l-535
533 -80 -66z m3547 -2543 c559 -112 1003 -575 1095 -1140 17 -102 18 -363 3
-464 -85 -568 -532 -1044 -1088 -1157 -55 -11 -111 -20 -125 -20 l-27 0 7 129
c6 120 5 131 -14 163 -40 64 -111 75 -208 32 -85 -38 -178 -69 -358 -119 -87
-25 -169 -52 -182 -60 -22 -14 -28 -12 -99 30 -120 70 -214 146 -321 257 -274
285 -396 613 -381 1018 15 380 130 657 382 918 241 251 515 391 845 432 111
13 358 3 471 -19z m-235 -2545 c9 -24 -35 -715 -47 -737 -8 -16 -14 -18 -22
-10 -20 20 -62 12 -303 -59 -131 -38 -239 -70 -241 -70 -11 0 26 692 38 705 4
4 163 47 334 91 134 34 162 45 183 69 24 28 50 33 58 11z m2272 -1073 c-22
-23 -63 -51 -90 -63 -26 -11 -70 -34 -97 -49 l-48 -29 -399 399 -399 399 115
115 115 115 422 -422 423 -423 -42 -42z m-3834 710 c61 -59 111 -113 111 -119
0 -5 -137 -153 -305 -327 -304 -316 -305 -317 -311 -285 -12 73 -65 114 -136
106 -21 -3 -85 -23 -143 -46 -58 -22 -107 -39 -109 -37 -2 3 93 105 211 227
118 123 293 305 389 405 96 100 176 182 178 182 2 1 54 -47 115 -106z m-610
-732 c5 -7 -11 -167 -29 -294 -5 -35 -4 -38 15 -32 11 4 20 2 20 -4 0 -21 20
-11 115 59 53 38 122 84 153 101 31 18 64 38 72 45 45 38 215 69 342 61 68 -3
100 -11 142 -31 100 -49 174 -158 215 -316 54 -213 54 -434 0 -1135 -22 -291
-44 -622 -47 -735 l-7 -205 -50 -7 c-41 -5 -259 -86 -436 -162 -30 -12 -39
-13 -54 -2 -19 13 -18 35 57 1036 14 193 22 389 22 565 1 261 0 272 -22 320
-30 65 -55 91 -108 111 -53 20 -105 14 -188 -24 -47 -21 -73 -42 -125 -104
-137 -160 -154 -210 -171 -488 -6 -102 -19 -300 -30 -440 -32 -421 -51 -711
-46 -719 3 -4 -2 -17 -10 -29 -11 -17 -19 -20 -32 -13 -13 7 -72 -18 -242
-101 -257 -126 -272 -131 -296 -113 -20 14 -24 -72 61 1270 53 832 74 1128 81
1175 l6 35 121 34 c148 40 320 89 366 103 18 5 42 19 52 29 20 20 44 25 53 10z
m3092 -120 c-4 -64 -9 -140 -13 -169 -5 -47 -3 -52 12 -46 10 4 21 1 25 -7 7
-10 18 -7 52 18 125 89 279 187 346 220 72 36 81 38 171 38 81 0 104 -4 146
-24 71 -35 148 -118 187 -201 21 -44 38 -68 45 -65 7 2 13 0 13 -5 0 -16 37
-11 51 7 18 22 187 145 281 205 101 64 169 83 298 82 144 0 201 -22 291 -113
110 -111 167 -260 190 -500 15 -148 9 -283 -41 -930 -24 -312 -40 -592 -40
-690 0 -91 -4 -173 -10 -181 -5 -9 -22 -13 -43 -12 -30 2 -246 -76 -448 -162
-30 -13 -39 -13 -54 -2 -18 13 -18 22 -1 242 9 126 21 274 26 329 19 190 70
939 70 1025 0 232 -46 381 -130 425 -67 35 -175 6 -226 -60 -16 -21 -46 -58
-67 -82 -21 -25 -46 -62 -57 -84 -45 -87 -47 -104 -134 -1224 -8 -104 -17
-236 -19 -293 -3 -57 -8 -106 -11 -110 -4 -3 -22 -5 -40 -4 -18 1 -63 -10
-102 -27 -348 -146 -367 -153 -383 -137 -13 14 -14 39 -2 222 7 114 16 243 21
288 5 45 23 277 40 516 25 339 31 476 27 620 -5 223 -19 281 -82 347 -38 39
-46 43 -91 43 -60 0 -147 -40 -172 -79 -9 -14 -36 -48 -61 -76 -58 -66 -108
-173 -121 -260 -5 -38 -19 -200 -30 -360 -11 -159 -24 -344 -30 -410 -5 -66
-15 -228 -22 -359 -10 -207 -14 -242 -30 -258 -10 -10 -24 -15 -31 -12 -8 3
-119 -47 -247 -111 -272 -135 -293 -140 -298 -65 -5 72 142 2374 154 2412 3
12 30 25 77 38 40 12 133 38 207 60 74 21 152 41 172 45 21 3 50 16 65 29 32
26 54 36 67 28 4 -2 5 -57 2 -121z m-4081 42 c-25 -243 -164 -2114 -159 -2142
7 -38 33 -98 62 -143 21 -34 9 -58 -34 -72 -16 -6 -110 -58 -210 -118 -99 -59
-186 -108 -192 -108 -19 0 -33 37 -58 157 -14 64 -27 120 -30 124 -10 16 -54
10 -60 -8 -20 -62 -36 -86 -104 -153 -73 -74 -77 -76 -161 -98 -164 -42 -285
-22 -414 66 -136 93 -262 287 -334 514 -154 487 -73 1202 184 1613 90 144 304
342 403 371 61 19 166 18 233 -2 70 -21 164 -83 263 -173 100 -91 107 -87 115
56 l6 98 120 22 c132 25 304 50 348 52 l28 1 -6 -57z m3088 -48 c-11 -265
-146 -2246 -154 -2267 -9 -23 -15 -26 -39 -21 -22 4 -80 -21 -279 -121 -209
-105 -252 -124 -258 -110 -7 19 14 400 67 1194 22 322 46 700 55 840 8 140 18
280 21 311 l6 55 107 28 c107 29 265 74 354 102 27 8 57 24 68 35 11 11 28 19
37 17 14 -3 17 -14 15 -63z m4422 50 c310 -81 564 -504 542 -905 -11 -194
-111 -402 -256 -532 -51 -46 -52 -46 -178 -102 -149 -65 -312 -93 -453 -76
-41 5 -90 9 -109 10 l-34 0 6 -62 c7 -88 40 -168 94 -228 106 -118 270 -147
473 -85 41 13 86 25 100 29 14 3 64 26 112 52 62 33 90 54 98 74 10 23 47 47
57 37 1 -2 3 -128 3 -281 1 -306 1 -308 -61 -338 -106 -51 -327 -133 -424
-158 -262 -69 -561 37 -743 264 -232 287 -329 683 -277 1131 42 360 162 660
349 877 69 80 227 208 319 258 87 48 268 64 382 35z m-7468 -837 c-2 -13 -4
-5 -4 17 -1 22 1 32 4 23 2 -10 2 -28 0 -40z"/>
<path d="M1074 2244 c-17 -8 -37 -27 -45 -42 -8 -15 -31 -51 -51 -80 -40 -58
-78 -151 -102 -247 -35 -145 -41 -212 -40 -455 0 -209 3 -259 21 -342 37 -170
104 -279 182 -295 20 -4 38 -6 42 -6 3 1 31 4 63 7 31 2 69 12 84 22 57 36
122 97 127 117 14 62 87 836 92 980 l6 168 -69 68 c-113 110 -224 148 -310
105z m58 -223 c52 -48 53 -49 34 -69 -18 -21 -17 -22 24 -71 l42 -50 -6 -93
c-4 -51 -23 -257 -42 -458 -33 -339 -37 -366 -57 -382 -72 -58 -135 14 -173
197 -16 74 -19 133 -19 335 0 257 6 312 50 464 23 78 71 176 87 176 4 0 31
-22 60 -49z"/>
<path d="M9325 2245 c-22 -8 -48 -24 -58 -37 -10 -13 -36 -45 -58 -73 -78 -98
-149 -272 -182 -452 l-6 -31 57 13 c31 8 93 26 137 40 44 15 104 33 132 41
176 46 293 158 293 280 0 84 -92 189 -193 219 -61 18 -71 18 -122 0z m52 -249
c9 -17 19 -42 24 -58 7 -26 4 -30 -51 -62 -32 -19 -90 -46 -128 -60 l-70 -25
10 37 c18 65 73 176 108 215 l33 38 29 -28 c17 -15 37 -41 45 -57z"/>
</g>
</svg>
