<?xml version="1.0" standalone="no"?>
<!DOCTYPE svg PUBLIC "-//W3C//DTD SVG 20010904//EN"
 "http://www.w3.org/TR/2001/REC-SVG-20010904/DTD/svg10.dtd">
<svg version="1.0" xmlns="http://www.w3.org/2000/svg"
 width="1024.000000pt" height="1024.000000pt" viewBox="0 0 1024.000000 1024.000000"
 preserveAspectRatio="xMidYMid meet">
<metadata>
Created by potrace 1.14, written by Peter Selinger 2001-2017
</metadata>
<g transform="translate(0.000000,1024.000000) scale(0.100000,-0.100000)"
fill="#000000" stroke="none">
<path d="M2269 10026 c-2 -2 -33 -7 -69 -10 -141 -15 -204 -28 -340 -73 -474
-156 -831 -502 -1014 -981 -30 -78 -69 -204 -82 -265 -11 -49 -33 -164 -38
-199 -27 -175 -27 -429 -1 -2398 10 -766 16 -1220 20 -1590 3 -223 7 -560 10
-750 2 -190 7 -563 10 -830 8 -704 12 -892 20 -922 5 -20 2 -29 -13 -37 -11
-6 -26 -17 -34 -24 -7 -7 -37 -28 -66 -46 -30 -19 -59 -39 -65 -45 -7 -6 -61
-45 -122 -86 -60 -41 -114 -78 -120 -82 -5 -4 -35 -26 -65 -48 -195 -143 -289
-310 -278 -495 13 -202 194 -369 447 -411 18 -3 43 -8 55 -11 11 -4 232 -7
491 -9 259 -1 475 -3 481 -3 6 -1 27 -16 46 -34 19 -17 54 -48 77 -67 24 -19
48 -40 54 -45 22 -19 66 -47 174 -110 171 -100 379 -177 598 -221 110 -22 434
-27 535 -9 41 8 89 17 107 19 44 8 209 62 258 85 l40 19 17 -27 c21 -33 63
-64 107 -79 24 -9 179 -12 542 -12 475 0 510 1 551 19 24 10 57 34 74 52 52
56 62 98 63 259 1 79 3 145 4 147 2 1 96 3 209 3 116 1 222 6 242 12 44 14 93
64 111 114 l14 39 1 -70 c1 -38 1 -139 2 -224 1 -85 6 -170 12 -189 15 -49 87
-125 136 -145 37 -14 103 -16 542 -17 484 0 501 0 546 20 59 26 98 64 122 116
18 39 19 74 20 550 0 279 2 509 4 511 4 4 216 -128 406 -253 36 -23 182 -117
325 -208 143 -90 265 -169 272 -175 7 -6 15 -11 18 -11 6 0 87 -52 95 -61 3
-3 12 -8 20 -12 8 -4 80 -50 160 -102 80 -52 177 -113 215 -137 39 -23 72 -46
73 -50 2 -5 7 -8 12 -8 4 0 46 -25 92 -55 86 -57 166 -100 208 -112 14 -4 333
-8 710 -10 742 -2 751 -1 832 52 75 49 96 153 50 235 -46 82 28 35 -1232 790
-278 166 -519 311 -537 321 -17 10 -50 29 -72 43 -22 15 -45 26 -50 26 -5 0
-11 3 -13 8 -3 7 -378 234 -430 260 -15 7 -30 17 -32 21 -4 6 96 63 259 146
33 16 62 33 65 36 3 3 43 25 90 48 47 24 90 46 95 51 6 4 64 35 130 70 66 35
125 66 130 70 6 4 51 29 100 55 50 26 122 65 160 85 139 75 482 258 560 300
44 23 94 50 110 60 33 20 136 74 265 141 113 59 186 130 195 191 8 52 -4 105
-31 137 -23 27 -84 60 -127 68 -26 5 -580 12 -1031 13 l-78 0 53 56 c146 151
220 346 214 563 -6 202 -63 369 -197 578 -45 71 -31 71 -148 1 -36 -21 -72
-43 -80 -48 -62 -38 -217 -126 -227 -128 -7 -2 -13 -8 -13 -13 0 -5 -4 -9 -9
-9 -9 0 -59 -29 -141 -79 -14 -9 -27 -16 -30 -16 -4 -1 -39 -21 -105 -62 -11
-7 -51 -31 -90 -53 -38 -22 -88 -51 -110 -65 -22 -14 -47 -28 -55 -32 -8 -4
-42 -23 -75 -43 -33 -20 -80 -48 -105 -62 -25 -14 -97 -56 -160 -93 -63 -37
-124 -73 -135 -79 -11 -6 -31 -19 -45 -27 -14 -9 -110 -65 -213 -125 -103 -60
-200 -116 -215 -125 -40 -24 -202 -119 -241 -141 -28 -16 -39 -17 -58 -9 -16
7 -186 11 -521 11 -478 0 -499 -1 -542 -21 -55 -25 -95 -62 -123 -114 -23 -42
-23 -50 -27 -573 0 -34 -4 -44 -22 -52 -13 -6 -68 -37 -123 -71 -55 -33 -108
-63 -117 -66 -10 -3 -18 -9 -18 -14 0 -5 -5 -9 -10 -9 -6 0 -52 -25 -102 -55
-50 -30 -93 -55 -95 -55 -2 0 -21 -11 -41 -25 -20 -14 -40 -25 -44 -25 -5 0
-8 197 -8 438 0 285 -4 451 -11 477 -15 55 -51 99 -107 132 l-47 28 -325 3
c-179 1 -352 3 -384 5 l-60 2 375 214 c205 117 390 223 409 233 19 11 287 164
595 341 308 176 576 329 595 339 19 11 51 29 70 40 83 48 873 499 906 517 l36
19 -24 15 c-69 42 -129 77 -133 77 -2 0 -39 20 -81 45 -41 25 -77 45 -79 45
-2 0 -30 15 -62 34 -32 18 -78 44 -103 58 -25 14 -112 63 -195 110 -155 88
-211 119 -292 164 -27 15 -73 42 -104 60 -31 19 -59 34 -61 34 -2 0 -60 32
-129 71 -68 39 -146 84 -174 99 -27 15 -356 199 -730 410 -374 211 -700 394
-725 408 -25 13 -58 32 -75 42 -16 10 -50 29 -75 42 -25 14 -112 63 -195 110
-196 111 -238 134 -312 175 l-63 34 -1 -133 c0 -73 -2 -198 -4 -278 -1 -80 -6
-307 -9 -505 -4 -198 -9 -463 -11 -590 -2 -126 -7 -369 -10 -540 -3 -170 -8
-416 -10 -545 -8 -380 -16 -834 -18 -998 -2 -166 2 -156 -67 -167 -73 -12
-108 -26 -183 -72 -121 -75 -822 -545 -825 -555 -2 -4 -8 -8 -13 -8 -5 0 -50
-27 -100 -60 -49 -34 -95 -63 -103 -66 -11 -4 -14 47 -16 293 -1 164 -3 442
-5 618 -2 176 -6 561 -9 855 -4 294 -8 744 -11 1000 -3 256 -7 665 -10 910 -2
245 -7 706 -11 1025 -9 784 -9 1221 -2 1275 23 168 85 304 169 371 128 101
339 85 555 -42 38 -23 157 -91 264 -152 107 -60 211 -119 230 -130 19 -11 60
-33 90 -50 30 -16 84 -47 120 -67 36 -21 85 -48 110 -62 25 -14 97 -54 160
-90 63 -36 135 -76 160 -90 25 -14 171 -96 325 -183 154 -87 300 -169 325
-183 25 -14 146 -82 270 -152 124 -70 252 -142 285 -160 33 -18 74 -41 90 -50
240 -136 429 -242 465 -262 25 -14 207 -116 405 -228 198 -112 430 -242 515
-290 85 -48 409 -230 720 -405 311 -175 590 -332 620 -348 30 -17 72 -41 92
-54 21 -13 40 -23 42 -23 3 0 31 -15 63 -34 32 -18 78 -45 103 -58 561 -311
738 -418 870 -527 59 -48 187 -175 233 -228 149 -177 249 -414 301 -710 5 -30
15 -18 48 54 66 144 115 307 132 433 4 25 9 57 12 72 3 15 7 80 8 145 5 214
-24 404 -91 603 -100 297 -287 565 -539 770 -38 32 -137 97 -220 145 -82 47
-156 90 -164 95 -55 33 -172 100 -176 100 -3 0 -28 15 -57 33 -29 18 -59 36
-67 40 -8 4 -33 18 -55 31 -22 14 -51 31 -65 39 -32 17 -428 246 -775 447
-148 86 -290 168 -315 182 -25 14 -143 82 -263 151 -120 70 -237 138 -260 151
-23 13 -96 55 -162 93 -66 38 -255 148 -420 243 -165 95 -352 203 -415 240
-63 37 -135 78 -160 92 -45 26 -597 345 -654 379 -17 10 -42 24 -56 32 -14 7
-99 56 -190 109 -91 53 -352 204 -581 336 -228 132 -437 255 -463 272 -178
121 -496 240 -711 266 -22 3 -47 8 -55 11 -18 6 -354 15 -361 9z m1091 -7993
l0 -468 -43 -25 -42 -24 -687 -1 c-613 0 -685 2 -670 15 9 8 136 95 282 193
323 218 508 343 535 363 11 8 32 22 47 32 14 9 73 48 130 87 56 38 111 73 121
77 9 4 17 12 17 18 0 5 4 10 9 10 9 0 211 135 236 157 15 13 49 32 58 33 4 0
7 -210 7 -467z m1962 -619 c2 -25 1 -47 -1 -50 -2 -2 -13 15 -23 38 -15 33
-16 43 -6 50 22 14 26 9 30 -38z"/>
</g>
</svg>
