<?xml version="1.0" standalone="no"?>
<!DOCTYPE svg PUBLIC "-//W3C//DTD SVG 20010904//EN"
 "http://www.w3.org/TR/2001/REC-SVG-20010904/DTD/svg10.dtd">
<svg version="1.0" xmlns="http://www.w3.org/2000/svg"
 width="1024.000000pt" height="1024.000000pt" viewBox="0 0 1024.000000 1024.000000"
 preserveAspectRatio="xMidYMid meet">
<metadata>
Created by potrace 1.14, written by Peter Selinger 2001-2017
</metadata>
<g transform="translate(0.000000,1024.000000) scale(0.100000,-0.100000)"
fill="#000000" stroke="none">
<path d="M1864 9055 c-111 -94 -354 -317 -354 -325 0 -3 297 -302 660 -665
l661 -659 42 42 42 42 403 -403 402 -402 -112 -112 -113 -112 -405 399 -405
398 43 44 42 44 -660 659 -660 659 -46 -45 c-56 -54 -304 -339 -312 -358 -3
-9 185 -202 535 -550 297 -295 570 -574 607 -621 325 -412 487 -851 552 -1500
33 -322 22 -947 -22 -1265 -79 -576 -288 -1038 -634 -1408 -75 -80 -119 -112
-558 -405 -813 -543 -1272 -863 -1369 -955 -182 -173 -232 -384 -135 -573 29
-56 128 -147 202 -184 35 -18 107 -44 159 -58 l96 -27 1418 -3 1417 -3 0 -152
c0 -145 1 -156 26 -205 28 -56 68 -92 123 -111 24 -8 189 -11 541 -11 565 0
550 -2 623 68 54 52 67 106 67 274 l0 138 206 0 c126 0 222 4 245 11 47 14 96
64 114 115 13 35 14 18 15 -182 0 -251 6 -284 68 -348 75 -78 61 -76 619 -76
347 0 507 3 534 12 52 15 113 68 138 121 20 42 21 57 21 555 0 282 2 512 5
512 5 0 89 -54 810 -515 898 -575 1000 -639 1049 -659 50 -20 68 -21 734 -24
746 -3 760 -2 845 54 72 47 95 150 53 232 -34 65 -128 128 -819 542 -389 234
-742 446 -785 472 -65 39 -121 91 -329 306 l-252 259 43 20 43 21 303 -314
c166 -173 305 -314 309 -314 16 0 391 419 391 437 0 4 -106 114 -236 244
l-236 236 148 81 c82 44 250 134 374 200 533 285 727 393 763 422 120 100 94
257 -51 310 -48 18 -1195 27 -1276 10 -60 -12 -104 -34 -395 -194 -117 -64
-220 -115 -227 -112 -24 9 -131 183 -204 331 -146 298 -227 590 -277 1000 -26
220 -26 1150 0 1365 38 307 94 514 196 725 139 289 219 383 915 1082 l579 582
-29 38 c-50 67 -210 256 -281 331 l-68 73 -655 -637 c-360 -351 -657 -642
-659 -647 -2 -5 14 -26 34 -47 l38 -39 -311 -318 c-171 -175 -349 -356 -395
-402 l-85 -84 -116 113 -115 113 397 403 397 403 42 -42 43 -41 127 125 c71
69 368 358 661 644 l533 518 -68 70 c-80 81 -323 297 -335 297 -5 0 -246 -235
-536 -523 -290 -288 -565 -552 -612 -588 -421 -325 -872 -494 -1503 -566 -192
-22 -844 -25 -1037 -5 -299 31 -626 100 -836 177 -238 87 -528 250 -721 406
-43 34 -317 301 -609 592 l-531 528 -79 -66z m3521 -2540 c563 -100 1021 -566
1120 -1139 20 -119 20 -374 -1 -497 -46 -277 -183 -537 -394 -749 -201 -201
-422 -321 -703 -382 -135 -29 -425 -31 -560 -5 -283 57 -513 182 -727 397
-210 209 -327 424 -387 710 -27 129 -24 438 5 577 56 258 170 475 350 665 82
86 197 182 288 240 152 97 368 173 570 198 96 12 331 4 439 -15z m2062 -3613
c-20 -21 -37 -45 -37 -53 0 -9 -37 -35 -91 -64 l-91 -48 -264 264 c-145 145
-264 270 -264 277 0 52 -94 153 -161 174 -21 6 -57 30 -80 54 l-43 44 114 115
115 115 420 -420 420 -420 -38 -38z m-3729 571 c-8 -10 -63 -13 -237 -13
l-226 0 125 125 125 125 112 -112 c86 -86 110 -115 101 -125z m842 -129 l39
-16 1 -966 c0 -531 2 -967 4 -970 2 -2 16 4 30 13 23 15 54 17 269 14 213 -4
246 -6 270 -22 18 -11 25 -22 20 -30 -4 -7 -10 -119 -13 -249 -4 -175 -8 -240
-18 -250 -10 -10 -82 -14 -290 -18 l-277 -5 -5 -215 c-3 -118 -8 -220 -12
-227 -20 -29 -75 -32 -548 -30 -451 2 -479 3 -499 21 -12 11 -27 16 -37 12
-10 -4 -21 -1 -26 6 -4 7 -8 100 -8 207 0 167 2 197 17 213 16 17 -29 18
-1408 18 -916 0 -1455 4 -1509 10 -132 16 -236 53 -298 105 -17 14 -34 24 -39
23 -18 -5 -61 35 -79 74 -14 31 -19 66 -19 123 0 73 4 88 37 157 63 127 101
157 773 620 421 290 2013 1348 2053 1363 22 9 62 20 89 25 26 4 362 8 745 9
617 1 702 -1 738 -15z m1959 2 c40 -21 58 -45 42 -55 -10 -7 -10 -13 -2 -29 8
-15 11 -168 9 -527 -2 -278 0 -505 3 -505 3 0 11 10 16 23 11 22 44 41 1053
589 857 467 915 497 966 508 75 16 1188 9 1229 -8 48 -20 70 -72 30 -72 -7 0
-15 -4 -17 -8 -8 -20 -89 -68 -303 -182 -126 -67 -383 -205 -570 -305 -527
-283 -1104 -593 -1277 -686 -149 -79 -155 -84 -121 -87 28 -3 337 -184 1240
-725 662 -396 1218 -733 1236 -748 27 -23 30 -28 15 -34 -12 -5 -143 68 -430
240 -614 369 -799 475 -825 475 -12 0 -175 -36 -360 -80 -186 -43 -408 -95
-493 -114 -85 -20 -170 -40 -188 -45 -27 -8 -40 -6 -70 11 -86 49 -2 -9 213
-149 460 -298 674 -433 709 -448 24 -10 34 -20 30 -30 -4 -8 -11 -15 -18 -15
-25 1 -106 45 -245 134 -172 110 -1456 931 -1650 1055 -95 60 -140 96 -155
121 l-21 35 -5 -540 c-3 -297 -7 -522 -10 -500 -5 38 -6 40 -38 37 -19 -1
-140 -27 -270 -58 -131 -30 -273 -62 -317 -70 -89 -17 -221 -45 -363 -77 -79
-18 -93 -23 -89 -38 3 -10 -1 -25 -7 -34 -11 -16 -13 -15 -27 1 -12 15 -14
213 -14 1440 l0 1423 21 28 c47 64 40 63 567 63 396 0 483 -2 506 -14z m-1199
-1308 c0 -669 -1 -682 -19 -643 -26 57 -79 101 -141 114 -28 6 -134 11 -235
11 l-185 0 0 595 0 594 83 4 c45 1 175 4 290 5 l207 2 0 -682z"/>
<path d="M3347 2662 c-37 -20 -217 -138 -399 -262 -1209 -820 -1184 -802
-1208 -860 -17 -41 -9 -85 15 -86 11 0 34 -8 52 -17 29 -15 104 -17 840 -20
l808 -2 2 628 c1 345 5 631 7 636 3 5 3 11 -1 15 -14 14 -51 4 -116 -32z m13
-737 l0 -405 -447 0 -448 0 245 246 c266 266 415 401 555 500 49 35 91 64 92
64 2 0 3 -182 3 -405z"/>
</g>
</svg>
