<?xml version="1.0" standalone="no"?>
<!DOCTYPE svg PUBLIC "-//W3C//DTD SVG 20010904//EN"
 "http://www.w3.org/TR/2001/REC-SVG-20010904/DTD/svg10.dtd">
<svg version="1.0" xmlns="http://www.w3.org/2000/svg"
 width="825.000000pt" height="825.000000pt" viewBox="0 0 825.000000 825.000000"
 preserveAspectRatio="xMidYMid meet">
<metadata>
Created by potrace 1.14, written by Peter Selinger 2001-2017
</metadata>
<g transform="translate(0.000000,825.000000) scale(0.100000,-0.100000)"
fill="#000000" stroke="none">
<path d="M3842 8159 c-943 -68 -1840 -467 -2516 -1120 -189 -182 -366 -386
-479 -552 -57 -82 -62 -132 -22 -191 l25 -37 -69 -114 c-38 -63 -71 -120 -73
-127 -3 -8 -24 0 -62 21 -32 19 -61 30 -66 25 -5 -5 -38 -67 -73 -139 -320
-642 -465 -1364 -417 -2065 39 -559 172 -1048 421 -1550 127 -255 235 -428
315 -505 l62 -60 57 -285 c31 -157 68 -321 82 -365 108 -344 389 -609 742
-702 80 -21 120 -26 241 -27 80 0 170 3 201 7 l56 9 29 -58 c62 -123 198 -221
341 -246 226 -38 456 103 524 323 33 107 27 172 -61 606 -44 218 -79 398 -77
399 2 2 39 -10 83 -27 318 -120 656 -179 1024 -179 368 0 706 59 1024 179 44
17 81 29 83 27 2 -1 -33 -180 -77 -397 -88 -433 -95 -500 -61 -608 68 -220
298 -361 524 -323 144 25 282 124 342 246 l28 57 56 -8 c31 -4 121 -7 201 -7
121 1 161 6 241 27 353 93 634 358 742 702 14 44 51 208 82 365 l57 285 58 55
c157 148 438 702 564 1110 225 734 244 1491 55 2225 -409 1590 -1733 2772
-3355 2994 -282 39 -582 49 -852 30z m648 -955 c899 -100 1732 -614 2233
-1377 341 -519 509 -1082 509 -1707 0 -189 -19 -443 -37 -501 -4 -13 7 -18 61
-27 36 -6 68 -13 70 -14 6 -7 -71 -341 -82 -356 -1 -2 -19 15 -40 38 -33 36
-160 137 -209 165 -17 10 -16 18 8 155 38 210 47 314 47 542 0 546 -133 1033
-411 1501 -470 791 -1311 1322 -2232 1408 -166 15 -554 7 -697 -16 -656 -102
-1229 -395 -1677 -858 -337 -348 -563 -735 -706 -1207 -82 -269 -117 -523
-117 -835 1 -222 14 -374 51 -563 22 -111 22 -116 5 -126 -10 -6 -45 -30 -78
-54 -33 -24 -61 -42 -63 -40 -9 9 -67 322 -81 438 -19 161 -22 498 -5 650 79
722 391 1376 898 1886 559 561 1272 877 2073 918 107 5 336 -4 480 -20z m-30
-598 c572 -77 1091 -344 1491 -765 125 -131 126 -124 -16 -135 -210 -17 -513
-65 -730 -117 l-90 -22 -59 38 c-147 94 -358 181 -541 223 -152 35 -273 45
-458 39 -321 -10 -591 -91 -864 -258 -67 -41 -68 -41 -118 -29 -241 57 -505
101 -737 122 -76 6 -138 16 -138 20 0 18 291 300 380 368 407 313 833 481
1340 530 122 11 405 4 540 -14z m-2060 -971 c630 -72 1115 -220 1451 -442 65
-43 78 -57 108 -115 32 -62 34 -75 39 -187 3 -80 1 -121 -6 -121 -5 0 -12 7
-15 15 -10 24 -173 124 -312 191 -338 163 -804 277 -1340 329 -238 23 -357 22
-400 -4 l-35 -20 0 82 c0 154 28 254 79 283 31 18 216 13 431 -11z m3890 -2
c40 -37 60 -119 60 -245 0 -54 -2 -98 -5 -98 -3 0 -18 8 -32 18 -49 31 -307
18 -671 -34 -437 -62 -813 -169 -1099 -312 -122 -62 -268 -154 -276 -176 -16
-42 -22 -5 -17 111 5 113 9 134 32 178 32 62 54 82 154 146 332 211 864 362
1494 424 74 7 179 13 232 14 93 1 99 0 128 -26z m179 -605 c129 -334 188 -721
163 -1072 -7 -91 -16 -174 -20 -186 -7 -18 -11 -14 -34 32 -31 64 -95 138
-144 169 l-36 22 7 381 c4 210 8 470 8 578 1 109 5 194 8 190 4 -4 25 -55 48
-114z m-4630 -477 l3 -558 -68 -69 c-42 -41 -79 -90 -94 -122 -32 -70 -35 -59
-51 153 -25 337 28 705 148 1033 25 67 48 122 52 122 3 0 8 -251 10 -559z
m374 -797 c25 -17 51 -47 64 -74 15 -31 121 -539 333 -1592 288 -1435 310
-1550 299 -1591 -32 -128 -176 -194 -290 -134 -94 50 -65 -67 -409 1644 -170
848 -310 1563 -310 1588 0 56 29 115 73 149 49 38 76 46 140 43 44 -3 67 -10
100 -33z m4059 0 c56 -39 88 -96 88 -157 0 -27 -140 -742 -310 -1590 -344
-1711 -315 -1594 -409 -1644 -115 -60 -260 8 -291 136 -10 43 13 159 300 1586
170 847 317 1559 326 1582 29 78 106 125 197 120 44 -3 67 -10 99 -33z m-2112
-1704 c0 -241 3 -306 14 -329 14 -27 53 -51 81 -51 8 0 61 33 117 74 207 148
480 298 744 409 158 66 283 111 289 105 3 -2 -10 -78 -28 -169 l-32 -164 -123
-61 c-685 -338 -1517 -335 -2202 8 l-105 53 -32 164 c-18 91 -31 167 -28 169
12 12 339 -124 539 -225 179 -90 313 -169 463 -274 114 -80 149 -93 184 -66
37 28 39 50 39 356 l0 301 40 0 40 0 0 -300z"/>
<path d="M3528 783 c7 -3 16 -2 19 1 4 3 -2 6 -13 5 -11 0 -14 -3 -6 -6z"/>
<path d="M3588 773 c7 -3 16 -2 19 1 4 3 -2 6 -13 5 -11 0 -14 -3 -6 -6z"/>
<path d="M4658 773 c7 -3 16 -2 19 1 4 3 -2 6 -13 5 -11 0 -14 -3 -6 -6z"/>
<path d="M3648 763 c6 -2 18 -2 25 0 6 3 1 5 -13 5 -14 0 -19 -2 -12 -5z"/>
<path d="M4588 763 c6 -2 18 -2 25 0 6 3 1 5 -13 5 -14 0 -19 -2 -12 -5z"/>
<path d="M3728 753 c6 -2 18 -2 25 0 6 3 1 5 -13 5 -14 0 -19 -2 -12 -5z"/>
<path d="M4508 753 c6 -2 18 -2 25 0 6 3 1 5 -13 5 -14 0 -19 -2 -12 -5z"/>
<path d="M3823 743 c9 -2 23 -2 30 0 6 3 -1 5 -18 5 -16 0 -22 -2 -12 -5z"/>
<path d="M4413 743 c9 -2 23 -2 30 0 6 3 -1 5 -18 5 -16 0 -22 -2 -12 -5z"/>
<path d="M3977 733 c18 -2 50 -2 70 0 21 2 7 4 -32 4 -38 0 -55 -2 -38 -4z"/>
<path d="M4207 733 c18 -2 50 -2 70 0 21 2 7 4 -32 4 -38 0 -55 -2 -38 -4z"/>
</g>
</svg>
